<svg xmlns="http://www.w3.org/2000/svg" viewBox="0 0 1200 1500" role="img" aria-labelledby="t d">
  <title id="t">Jade Hero Image</title>
  <desc id="d">Abstract green jade texture with golden accents</desc>
  <defs>
    <linearGradient id="bg" x1="0" y1="0" x2="1" y2="1">
      <stop offset="0" stop-color="#05110d"/>
      <stop offset="0.55" stop-color="#123127"/>
      <stop offset="1" stop-color="#0a1d17"/>
    </linearGradient>
    <radialGradient id="g1" cx="0.2" cy="0.15" r="0.7">
      <stop offset="0" stop-color="#5dd8a8" stop-opacity="0.7"/>
      <stop offset="1" stop-color="#5dd8a8" stop-opacity="0"/>
    </radialGradient>
    <radialGradient id="g2" cx="0.9" cy="0.05" r="0.5">
      <stop offset="0" stop-color="#f0cb7d" stop-opacity="0.45"/>
      <stop offset="1" stop-color="#f0cb7d" stop-opacity="0"/>
    </radialGradient>
  </defs>
  <rect width="1200" height="1500" fill="url(#bg)"/>
  <rect width="1200" height="1500" fill="url(#g1)"/>
  <rect width="1200" height="1500" fill="url(#g2)"/>
  <g fill="none" stroke="#88e4c0" stroke-opacity="0.35">
    <path d="M-80 220 C 240 140, 430 390, 780 310 C 980 260, 1130 130, 1320 240" stroke-width="18"/>
    <path d="M-120 640 C 240 470, 530 740, 820 650 C 1030 590, 1110 510, 1280 600" stroke-width="16"/>
    <path d="M-80 1080 C 190 980, 440 1240, 760 1170 C 980 1120, 1080 980, 1300 1050" stroke-width="20"/>
  </g>
  <g fill="none" stroke="#efc676" stroke-opacity="0.5">
    <path d="M140 0 C 260 180, 70 350, 220 540 C 330 680, 210 860, 280 1030 C 350 1200, 250 1380, 380 1500" stroke-width="5"/>
    <path d="M910 0 C 810 160, 1010 330, 850 510 C 720 660, 850 850, 760 1030 C 690 1170, 780 1360, 700 1500" stroke-width="4"/>
  </g>
</svg>
